<?xml version="1.0" encoding="UTF-8"?>
<svg id="Calque_2" data-name="Calque 2" xmlns="http://www.w3.org/2000/svg" viewBox="0 0 117.86 163.13">
  <defs>
    <style>
      .cls-1 {
        fill: #efe3d3;
      }
    </style>
  </defs>
  <g id="Calque_1-2" data-name="Calque 1">
    <path class="cls-1" d="M52.66,67.95c8.62-3.97,17.35-9.26,25.8-15.88,18.64-14.6,32.35-32.76,39.4-50.24l-1.52-.62h-38.66c-2.49,4.1-5.34,8.12-8.55,12-2.26,2.71-4.69,5.35-7.29,7.88-10.12,9.87-21.32,16.83-32.2,20.71-1.33.47-2.65.9-3.96,1.28V11.45s0,0,0,0V1.82c0-.89-.72-1.61-1.61-1.61s-1.61.72-1.61,1.61v9.27c-.03.11-.05.23-.05.35v32.49c-1.44.34-2.88.62-4.3.84V5.12c0-.11-.02-.22-.04-.33V1.61c0-.89-.72-1.61-1.61-1.61s-1.61.72-1.61,1.61v3.43s0,.06,0,.08v40.05c-1.37.13-2.72.21-4.06.23V5.04c0-.09-.01-.17-.03-.25V1.88c0-.89-.72-1.61-1.61-1.61s-1.61.72-1.61,1.61v2.9c-.02.08-.03.17-.03.25v41.1H3.38V11.51c0-.11-.02-.22-.04-.33V1.95c0-.89-.72-1.61-1.61-1.61S.11,1.06.11,1.95v9.48s0,.06,0,.08v34.62s-.02,0-.03,0v9.82h-.08v106.88h7.43v.31h9.24v-61.85l12.16-12.16.09-.09c15.12,5.37,29.87,19.03,39.04,38.16,5.76,12,8.48,24.39,8.43,35.74h36.25c.11-17.01-5.68-36.87-17.38-55.45-11.76-18.67-27.22-32.42-42.61-39.53Z"/>
  </g>
</svg>