<?xml version="1.0" encoding="UTF-8"?>
<svg id="Calque_2" data-name="Calque 2" xmlns="http://www.w3.org/2000/svg" viewBox="0 0 128.9 144.08">
  <defs>
    <style>
      .cls-1 {
        fill: #efe3d3;
      }
    </style>
  </defs>
  <g id="Calque_1-2" data-name="Calque 1">
    <g>
      <path class="cls-1" d="M84.53,71.73c23.56-14.21,40.67-38.1,44.37-65.59l-17.89-3.3c-4.77,31.26-30.08,56.52-60.78,61.48C32.25,45.45,17.67,23.01,7.38,0,3.36,13.9.85,27.66,0,42.2c8.6,8.9,18.17,17.32,28.35,25.06,0,0-.01,0-.02,0,1.55,1.28,15.35,12.52,19.97,13.79.21.13.43.26.64.39-.03.12-.05.24-.07.4h.02c.12-.06.24-.13.36-.2,13.03,8.07,26.66,14.97,40.33,20.3.33-.16.67-.32,1-.48,7.41,7.42,13.07,16.58,16.25,26.64,5.51,18.53.07,15.86,20.2,15.85-.25-30.43-16.04-57-42.5-72.21Z"/>
      <path class="cls-1" d="M89.59,101.93s0,0,0,0c0,0,0,0-.01,0,0,0,0,0,.01,0Z"/>
      <path class="cls-1" d="M86.72,101.81c-28.98,2.29-57.96-3.75-83.48-17.75-.1,26.02.37,34.76.37,52.5,37.9-13.32,57.4-20.93,85.98-34.63-2.49,1.08.88-.43-2.86-.13Z"/>
    </g>
  </g>
</svg>